<svg xmlns="http://www.w3.org/2000/svg" viewBox="0 0 42.65 36.55"><defs><style>.cls-1,.cls-2{fill:#ab4b58;}.cls-2{fill-rule:evenodd;}</style></defs><title>Artboard 1</title><g id="Layer_3" data-name="Layer 3"><path class="cls-1" d="M11.93,31a8.68,8.68,0,0,1-1.79.8,8,8,0,0,1-2.58.38,7.77,7.77,0,0,1-3.14-.61A7.09,7.09,0,0,1,2,29.94a7.43,7.43,0,0,1-1.51-2.4A7.87,7.87,0,0,1,0,24.64a7.78,7.78,0,0,1,.61-3.09,7.66,7.66,0,0,1,7.12-4.68,9.09,9.09,0,0,1,1.14.07,7.82,7.82,0,0,1,2.07.56,3.83,3.83,0,0,1,.76.42l-.17.27-.13.22-.15.26L11,19a5.17,5.17,0,0,0-1.56-.63,7.49,7.49,0,0,0-1.71-.21,6.13,6.13,0,0,0-2.48.5,6.28,6.28,0,0,0-2,1.38,6.59,6.59,0,0,0-1.34,2,6.06,6.06,0,0,0-.49,2.43,6.36,6.36,0,0,0,.44,2.34,5.93,5.93,0,0,0,1.26,2,6.27,6.27,0,0,0,2,1.37,6,6,0,0,0,2.52.51,7.2,7.2,0,0,0,1.18-.09,7.35,7.35,0,0,0,1-.25,8.17,8.17,0,0,0,.85-.33,2.86,2.86,0,0,0,.58-.34Z"/><path class="cls-1" d="M30.43,17.08l-.87,2.18q-.47,1.18-.93,2.36L27.72,24l-.8,2.11q-.36,1-.61,1.66a8.32,8.32,0,0,0-.31,1l-.17.63-.08-.31-.08-.32q-.17-.5-.45-1.28l-.62-1.69-.71-1.92-.67-1.79H21.68l0,.09q-.65,1.76-1.2,3.19l-.45,1.2-.39,1.06-.28.79-.14.38-.1.3a1.34,1.34,0,0,0-.08.3l-.17-.63q-.08-.29-.33-1T18,26.12L17.19,24q-.43-1.14-.89-2.34l-.92-2.38-.86-2.22H12.89q1.58,3.93,3,7.81t3,7.83q.19-.53.44-1.18L20,30.2l.56-1.4q.28-.7.54-1.37.61-1.55,1.24-3.19l0-.17,0-.15a.63.63,0,0,1,0-.13,1.2,1.2,0,0,0,.07.23l.09.21,3.28,8.46q.19-.52.58-1.53l.89-2.31L28.41,26,29.61,23l1.21-3.08,1.12-2.81Z"/><path class="cls-1" d="M42,17.81,41.5,19a11.51,11.51,0,0,0-1.63-.5,7.58,7.58,0,0,0-1.73-.21,4.49,4.49,0,0,0-1.35.19,3.12,3.12,0,0,0-1,.52,2.36,2.36,0,0,0-.64.77,2,2,0,0,0-.22.93,1.64,1.64,0,0,0,.34,1,3,3,0,0,0,.88.75,8.46,8.46,0,0,0,1.24.58l1.42.54a14.94,14.94,0,0,1,1.42.62,5.33,5.33,0,0,1,1.24.85,4,4,0,0,1,.88,1.2,3.83,3.83,0,0,1,.34,1.68,4.26,4.26,0,0,1-.36,1.77,3.72,3.72,0,0,1-1,1.34,4.77,4.77,0,0,1-1.65.86,7.43,7.43,0,0,1-2.22.3A7.9,7.9,0,0,1,35.77,32a9,9,0,0,1-1.32-.38,8.7,8.7,0,0,1-1-.45q-.43-.23-.68-.4l.65-1.26q.38.23.85.46a7.55,7.55,0,0,0,1,.4,8.7,8.7,0,0,0,1.06.27,5.64,5.64,0,0,0,1.07.1,5.56,5.56,0,0,0,1.25-.16,4.17,4.17,0,0,0,1.26-.51,3.25,3.25,0,0,0,1-.91,2.31,2.31,0,0,0,.39-1.35,2.23,2.23,0,0,0-.58-1.6,5.11,5.11,0,0,0-1.44-1,14.35,14.35,0,0,0-1.87-.77,12.54,12.54,0,0,1-1.87-.79,4.82,4.82,0,0,1-1.44-1.12,2.58,2.58,0,0,1-.58-1.74,3.64,3.64,0,0,1,.3-1.46,3.47,3.47,0,0,1,.89-1.23,4.46,4.46,0,0,1,1.43-.84A5.35,5.35,0,0,1,38,16.95,8,8,0,0,1,39.2,17q.62.09,1.17.23t1,.28Q41.79,17.71,42,17.81Z"/></g><g id="Layer_1" data-name="Layer 1"><path class="cls-2" d="M30.17,8c.75,5.54-5.13,8.2-10.82,6.85a5.71,5.71,0,0,1-4-7.45C20.44,5.64,24.72,9.17,30.17,8Z"/><path class="cls-1" d="M31.61,8.57A25.16,25.16,0,0,0,29.3.2c-.12-.27-.59-.18-1-.19.72,2.72,2.37,5.66,2.41,8.76.06,4.91-3.6,7.12-8.21,7.33-4.61-.21-8.27-2.42-8.21-7.33,0-3.09,1.68-6,2.41-8.76-.37,0-.85-.08-1,.19a25.16,25.16,0,0,0-2.31,8.37,12.29,12.29,0,0,0,0,2.12c.35,3.09,2.62,4.27,4.73,5.59h0A4.34,4.34,0,0,1,20,17.61h0a6.44,6.44,0,0,1,.76.78,2.76,2.76,0,0,1,.4.92,5.63,5.63,0,0,1,.43,2.48c.46,4.1.37,10.41-.06,11.72s-2.36,1.81-3.95,2c-.58.08-1.53-.1-1.83.58a36.18,36.18,0,0,0,6.77.45,36.18,36.18,0,0,0,6.77-.45c-.3-.68-1.25-.5-1.83-.58-1.59-.21-3.48-.62-3.95-2-.6-1.82-.54-13.47.77-15.11,2.2-2.75,6.81-3.19,7.31-7.7A12.31,12.31,0,0,0,31.61,8.57Z"/></g></svg>